<?xml version="1.0" encoding="UTF-8" standalone="no"?>
<!-- Created with Inkscape (http://www.inkscape.org/) -->

<svg
   version="1.1"
   id="svg206"
   width="454"
   height="455"
   viewBox="0 0 454 455"
   sodipodi:docname="logo_neko_full.svg"
   inkscape:version="1.2.2 (b0a8486541, 2022-12-01)"
   xmlns:inkscape="http://www.inkscape.org/namespaces/inkscape"
   xmlns:sodipodi="http://sodipodi.sourceforge.net/DTD/sodipodi-0.dtd"
   xmlns="http://www.w3.org/2000/svg"
   xmlns:svg="http://www.w3.org/2000/svg">
  <defs
     id="defs210">
    <inkscape:path-effect
       effect="bspline"
       id="path-effect1596"
       is_visible="true"
       lpeversion="1"
       weight="33.333333"
       steps="2"
       helper_size="0"
       apply_no_weight="true"
       apply_with_weight="true"
       only_selected="false" />
    <inkscape:path-effect
       effect="bspline"
       id="path-effect1592"
       is_visible="true"
       lpeversion="1"
       weight="33.333333"
       steps="2"
       helper_size="0"
       apply_no_weight="true"
       apply_with_weight="true"
       only_selected="false" />
    <inkscape:path-effect
       effect="bspline"
       id="path-effect1544"
       is_visible="true"
       lpeversion="1"
       weight="33.333333"
       steps="2"
       helper_size="0"
       apply_no_weight="true"
       apply_with_weight="true"
       only_selected="false" />
    <inkscape:path-effect
       effect="bspline"
       id="path-effect1540"
       is_visible="true"
       lpeversion="1"
       weight="33.333333"
       steps="2"
       helper_size="0"
       apply_no_weight="true"
       apply_with_weight="true"
       only_selected="false" />
    <inkscape:path-effect
       effect="bspline"
       id="path-effect1259"
       is_visible="true"
       lpeversion="1"
       weight="33.333333"
       steps="2"
       helper_size="0"
       apply_no_weight="true"
       apply_with_weight="true"
       only_selected="false" />
    <inkscape:path-effect
       effect="bspline"
       id="path-effect1255"
       is_visible="true"
       lpeversion="1"
       weight="33.333333"
       steps="2"
       helper_size="0"
       apply_no_weight="true"
       apply_with_weight="true"
       only_selected="false" />
    <inkscape:path-effect
       effect="bspline"
       id="path-effect1251"
       is_visible="true"
       lpeversion="1"
       weight="33.333333"
       steps="2"
       helper_size="0"
       apply_no_weight="true"
       apply_with_weight="true"
       only_selected="false" />
    <inkscape:path-effect
       effect="bspline"
       id="path-effect1247"
       is_visible="true"
       lpeversion="1"
       weight="33.333333"
       steps="2"
       helper_size="0"
       apply_no_weight="true"
       apply_with_weight="true"
       only_selected="false" />
    <inkscape:path-effect
       effect="bspline"
       id="path-effect1243"
       is_visible="true"
       lpeversion="1"
       weight="33.333333"
       steps="2"
       helper_size="0"
       apply_no_weight="true"
       apply_with_weight="true"
       only_selected="false" />
    <inkscape:path-effect
       effect="bspline"
       id="path-effect1239"
       is_visible="true"
       lpeversion="1"
       weight="33.333333"
       steps="2"
       helper_size="0"
       apply_no_weight="true"
       apply_with_weight="true"
       only_selected="false" />
    <inkscape:path-effect
       effect="bspline"
       id="path-effect1235"
       is_visible="true"
       lpeversion="1"
       weight="33.333333"
       steps="2"
       helper_size="0"
       apply_no_weight="true"
       apply_with_weight="true"
       only_selected="false" />
    <inkscape:path-effect
       effect="bspline"
       id="path-effect1231"
       is_visible="true"
       lpeversion="1"
       weight="33.333333"
       steps="2"
       helper_size="0"
       apply_no_weight="true"
       apply_with_weight="true"
       only_selected="false" />
    <inkscape:path-effect
       effect="bspline"
       id="path-effect1227"
       is_visible="true"
       lpeversion="1"
       weight="33.333333"
       steps="2"
       helper_size="0"
       apply_no_weight="true"
       apply_with_weight="true"
       only_selected="false" />
    <inkscape:path-effect
       effect="bspline"
       id="path-effect1223"
       is_visible="true"
       lpeversion="1"
       weight="33.333333"
       steps="2"
       helper_size="0"
       apply_no_weight="true"
       apply_with_weight="true"
       only_selected="false" />
    <inkscape:path-effect
       effect="bspline"
       id="path-effect1215"
       is_visible="true"
       lpeversion="1"
       weight="33.333333"
       steps="2"
       helper_size="0"
       apply_no_weight="true"
       apply_with_weight="true"
       only_selected="false" />
    <inkscape:path-effect
       effect="bspline"
       id="path-effect1103"
       is_visible="true"
       lpeversion="1"
       weight="33.333333"
       steps="2"
       helper_size="0"
       apply_no_weight="true"
       apply_with_weight="true"
       only_selected="false" />
  </defs>
  <sodipodi:namedview
     id="namedview208"
     pagecolor="#ffffff"
     bordercolor="#000000"
     borderopacity="0.25"
     inkscape:showpageshadow="false"
     inkscape:pageopacity="0.0"
     inkscape:pagecheckerboard="0"
     inkscape:deskcolor="#d1d1d1"
     showgrid="false"
     inkscape:zoom="17.800781"
     inkscape:cx="206.11455"
     inkscape:cy="188.61532"
     inkscape:window-width="1920"
     inkscape:window-height="1020"
     inkscape:window-x="0"
     inkscape:window-y="24"
     inkscape:window-maximized="1"
     inkscape:current-layer="layer1" />
  <g
     inkscape:groupmode="layer"
     inkscape:label="Image"
     id="g212"
     style="display:inline;fill:#000000">
    <rect
       style="display:inline;fill:#000000;stroke:#ffffff;stroke-width:2;stroke-linejoin:bevel;paint-order:stroke fill markers"
       id="rect1658"
       width="501.35547"
       height="478.78876"
       x="-10.372452"
       y="-6.246954" />
    <text
       xml:space="preserve"
       style="font-size:48px;fill:#ffffff;stroke:#ffffff;stroke-width:2;stroke-linejoin:bevel;paint-order:stroke fill markers"
       x="128.04399"
       y="394.10269"
       id="text1875"><tspan
         sodipodi:role="line"
         id="tspan1873"
         x="128.04399"
         y="394.10269"
         style="font-style:normal;font-variant:normal;font-weight:normal;font-stretch:normal;font-size:48px;font-family:Dracutaz;-inkscape-font-specification:Dracutaz;fill:#ffffff">CTRL_FREAK</tspan></text>
  </g>
  <g
     inkscape:groupmode="layer"
     id="layer1"
     inkscape:label="Image 1">
    <path
       style="fill:#000000;stroke:#ffffff;stroke-width:2;stroke-linejoin:bevel;paint-order:stroke fill markers"
       d="m 244.02504,263.9615 c 5.71539,-0.79648 11.42993,-1.59284 17.73751,-4.84847 6.30758,-3.25562 13.20865,-8.97031 19.08669,-16.26421 5.87803,-7.29389 10.733,-16.16697 15.00064,-26.45537 4.26763,-10.28841 7.94771,-21.99178 11.00913,-34.59801 3.06143,-12.60624 5.50399,-26.11473 6.66244,-35.33789 1.15844,-9.22317 1.03257,-14.16077 0.23333,-17.66578 -0.79923,-3.50501 -2.27254,-5.57738 -4.49787,-7.26108 -2.22532,-1.6837 -5.2029,-2.97802 -8.52805,-3.50564 -3.32515,-0.52762 -6.99737,-0.28793 -11.96471,1.02465 -4.96734,1.31259 -11.22908,3.69811 -18.00245,6.45985 -6.77337,2.76175 -14.05789,5.89953 -20.36381,7.98097 -6.30591,2.08143 -11.63316,3.10636 -17.43998,3.50927 -5.80682,0.40292 -12.0931,0.18364 -18.57339,-0.97451 -6.4803,-1.15814 -13.15439,-3.25539 -19.9249,-5.73091 -6.7705,-2.47553 -13.63701,-5.32931 -19.81663,-7.41827 -6.17963,-2.08896 -11.67195,-3.41276 -16.33486,-3.95931 -4.6629,-0.54654 -8.49589,-0.31546 -11.68642,0.81211 -3.19052,1.12757 -5.73758,3.15158 -7.30614,5.86361 -1.56856,2.71203 -2.15829,6.111 -1.94366,11.48484 0.21463,5.37385 1.23329,12.72189 3.50785,23.54794 2.27456,10.82604 5.80474,25.12934 10.02309,38.10237 4.21836,12.97303 9.12441,24.61502 14.37819,33.93166 5.25379,9.31664 10.8546,16.30751 15.81514,20.98962 4.96054,4.68212 9.2802,7.05568 14.1636,8.42947 4.88339,1.3738 10.33034,1.74835 15.77634,2.12283"
       id="path1101"
       inkscape:path-effect="#path-effect1103"
       inkscape:original-d="m 244.02504,263.9615 c 5.71554,-0.79537 11.43009,-1.59173 17.14364,-2.38909 6.90234,-5.71392 13.80342,-11.4286 20.70363,-17.14441 4.85616,-8.87242 9.71112,-17.7455 14.56518,-26.61975 3.68122,-11.70283 7.36129,-23.4062 11.04044,-35.1108 2.44365,-13.50804 4.88621,-27.01653 7.32782,-40.52629 -0.12488,-4.9368 -0.25076,-9.8744 -0.37764,-14.81309 -1.47237,-2.07145 -2.94568,-4.14382 -4.42002,-6.21723 -2.97671,-1.29337 -5.95429,-2.58769 -8.93294,-3.88304 -3.67137,0.2407 -7.34359,0.48038 -11.01689,0.71907 -6.26099,2.38662 -12.52273,4.77215 -18.78559,7.15672 -7.28382,3.13891 -14.56834,6.2767 -21.85401,9.41355 -5.32646,1.02596 -10.65371,2.05088 -15.98207,3.07483 -6.28553,-0.2183 -12.57181,-0.43758 -18.85921,-0.65787 -6.67336,-2.09633 -13.34745,-4.19358 -20.02267,-6.29187 -6.8658,-2.85289 -13.73231,-5.70667 -20.59997,-8.56151 -5.49155,-1.32286 -10.98387,-2.64667 -16.4773,-3.9715 -3.83215,0.23209 -7.66514,0.46317 -11.49921,0.69325 -2.54616,2.0251 -5.09322,4.04911 -7.64133,6.07216 -0.58875,3.40011 -1.17848,6.79908 -1.76922,10.19712 1.0197,7.34933 2.03836,14.69737 3.05604,22.04455 3.53131,14.30486 7.06149,28.60815 10.59073,42.91072 4.90725,11.64346 9.8133,23.28545 14.71845,34.92668 5.60205,6.99216 11.20286,13.98303 16.80279,20.97305 4.32084,2.37465 8.6405,4.74821 12.95925,7.12082 5.44817,0.37556 10.89512,0.75011 16.34118,1.12367" />
    <path
       style="fill:#000000;stroke:#ffffff;stroke-width:2;stroke-linejoin:bevel;paint-order:stroke fill markers"
       d="m 198.30942,262.64773 c -2.45107,3.19437 -4.90204,6.38861 -7.59628,9.77702 -2.69423,3.38842 -5.63164,6.97091 -7.66376,11.02005 -2.03211,4.04915 -3.15872,8.56409 -2.94217,14.32203 0.21656,5.75795 1.7758,12.75806 3.75348,19.00278 1.97768,6.24471 4.3734,11.73362 6.80752,15.26441 2.43412,3.53079 4.90586,5.10376 8.32087,5.52821 3.41501,0.42444 7.77342,-0.29875 11.10224,-1.61494 3.32882,-1.31619 5.62858,-3.22533 9.86755,-4.16992 4.23897,-0.94458 10.41595,-0.92465 14.37731,0.13064 3.96135,1.05529 5.70698,3.14477 8.39085,4.51867 2.68386,1.37391 6.30555,2.03304 9.26108,2.03284 2.95553,-2.1e-4 5.2452,-0.65934 7.86968,-3.70867 2.62448,-3.04933 5.58444,-8.48917 7.66526,-14.51904 2.08081,-6.02987 3.28231,-12.64984 3.77351,-18.61936 0.4912,-5.96953 0.27189,-11.28851 -1.18225,-15.69574 -1.45414,-4.40722 -4.14383,-7.90253 -7.12383,-11.64138 -2.97999,-3.73885 -6.25016,-7.72101 -9.52129,-11.70433"
       id="path1213"
       inkscape:path-effect="#path-effect1215"
       inkscape:original-d="m 198.30942,262.64773 c -2.44996,3.19523 -4.90093,6.38946 -7.35289,9.58269 -2.93653,3.58364 -5.87395,7.16613 -8.81242,10.7477 -1.12566,4.51612 -2.25227,9.03106 -3.37991,13.54509 1.56031,7.0014 3.11955,14.00152 4.67783,21.00077 2.39681,5.49014 4.79253,10.97905 7.1873,16.46707 2.47283,1.57403 4.94457,3.14699 7.41536,4.71898 4.35959,-0.72222 8.718,-1.44541 13.0755,-2.16962 2.30085,-1.90822 4.60061,-3.81737 6.89942,-5.72756 6.17823,0.0209 12.35521,0.0409 18.53132,0.0598 1.7467,2.09057 3.49232,4.18005 5.23699,6.26857 3.62283,0.66016 7.24452,1.31929 10.86529,1.97744 2.29077,-0.65816 4.58044,-1.31729 6.86917,-1.97744 2.96108,-5.43905 5.92105,-10.87889 8.88007,-16.31984 1.20255,-6.61923 2.40405,-13.2392 3.60458,-19.86031 -0.21831,-5.31819 -0.43762,-10.63717 -0.65793,-15.95725 -2.68879,-3.49444 -5.37847,-6.98975 -8.06921,-10.48612 -3.2693,-3.98131 -6.53947,-7.96346 -9.8107,-11.9467" />
    <path
       style="fill:none;stroke:#ffffff;stroke-width:2;stroke-linejoin:bevel;paint-order:stroke fill markers"
       d="m 217.35007,332.41788 c 0,0 -1.16331,-8.11147 -2.66097,-12.38693 -1.24755,-3.56145 -5.57467,-11.12379 -5.57467,-11.12379"
       id="path1217"
       sodipodi:nodetypes="csc" />
    <path
       style="fill:none;stroke:#ffffff;stroke-width:2;stroke-linejoin:bevel;paint-order:stroke fill markers"
       d="m 235.33968,332.01903 c 0,0 1.279,-7.77702 2.80422,-11.65689 1.51856,-3.86288 6.19484,-11.25942 6.19484,-11.25942"
       id="path1219"
       sodipodi:nodetypes="csc" />
    <path
       style="fill:none;stroke:#ffffff;stroke-width:2;stroke-linejoin:bevel;paint-order:stroke fill markers"
       d="m 174.47654,247.15486 c -5.33872,1.70537 -10.67806,3.41094 -16.71083,5.41056 -6.03276,1.99962 -12.75865,4.29321 -19.48526,6.58705"
       id="path1221"
       inkscape:path-effect="#path-effect1223"
       inkscape:original-d="m 174.47654,247.15486 c -5.33834,1.70657 -10.67768,3.41213 -16.01802,5.1167 -6.72516,2.29468 -13.45105,4.58828 -20.17807,6.88091" />
    <path
       style="fill:none;stroke:#ffffff;stroke-width:2;stroke-linejoin:bevel;paint-order:stroke fill markers"
       d="m 164.55124,232.95235 c -11.40955,1.08438 -22.82,2.16885 -34.23135,3.2534"
       id="path1225"
       inkscape:path-effect="#path-effect1227"
       inkscape:original-d="m 164.55124,232.95235 c -11.40945,1.08547 -22.8199,2.16994 -34.23135,3.2534" />
    <path
       style="fill:none;stroke:#ffffff;stroke-width:2;stroke-linejoin:bevel;paint-order:stroke fill markers"
       d="m 155.58038,214.67025 c -8.48617,-0.0998 -16.97335,-0.19959 -25.46155,-0.2994"
       id="path1229"
       inkscape:path-effect="#path-effect1231"
       inkscape:original-d="m 155.58038,214.67025 c -8.48618,-0.0988 -16.97336,-0.1986 -25.46155,-0.2994" />
    <path
       style="fill:none;stroke:#ffffff;stroke-width:2;stroke-linejoin:bevel;paint-order:stroke fill markers"
       d="m 297.47941,214.36903 c 7.70574,-0.14962 15.4105,-0.29923 23.11427,-0.44881"
       id="path1233"
       inkscape:path-effect="#path-effect1235"
       inkscape:original-d="m 297.47941,214.36903 c 7.70576,-0.14861 15.41052,-0.29821 23.11427,-0.44881" />
    <path
       style="fill:none;stroke:#ffffff;stroke-width:2;stroke-linejoin:bevel;paint-order:stroke fill markers"
       d="m 289.2903,231.32975 c 10.6065,1.65062 21.21187,3.30106 31.81611,4.95133"
       id="path1237"
       inkscape:path-effect="#path-effect1239"
       inkscape:original-d="m 289.2903,231.32975 c 10.60637,1.65145 21.21174,3.30189 31.81611,4.95133" />
    <path
       style="fill:none;stroke:#ffffff;stroke-width:2;stroke-linejoin:bevel;paint-order:stroke fill markers"
       d="m 278.47506,247.02862 c 6.44408,1.90633 12.88696,3.81231 18.97624,5.83129 6.08928,2.01898 11.82471,4.15079 17.55905,6.28219"
       id="path1241"
       inkscape:path-effect="#path-effect1243"
       inkscape:original-d="m 278.47506,247.02862 c 6.44389,1.90698 12.88677,3.81296 19.32866,5.71793 5.73666,2.13289 11.47209,4.2647 17.20663,6.39555" />
    <path
       style="fill:#000000;stroke:#ffffff;stroke-width:2;stroke-linejoin:bevel;paint-order:stroke fill markers"
       d="m 271.05485,308.19766 c 6.01033,-0.42024 12.01973,-0.84042 17.9201,-1.9817 5.90038,-1.14128 11.69182,-3.00346 15.91997,-4.62017 4.22814,-1.61671 6.893,-2.98785 9.91453,-3.35146 3.02153,-0.3636 6.39877,0.27993 8.41385,1.84926 2.01509,1.56932 2.66874,4.06335 1.95093,6.89366 -0.71782,2.83031 -2.80658,5.99765 -5.86386,9.04708 -3.05727,3.04944 -7.08319,5.98115 -12.44092,9.05931 -5.35772,3.07816 -12.04714,6.30265 -18.54825,8.2464 -6.5011,1.94375 -12.81399,2.60655 -17.83271,2.88411 -5.01872,0.27756 -8.74315,0.16975 -12.46868,0.0619"
       id="path1245"
       inkscape:path-effect="#path-effect1247"
       inkscape:original-d="m 271.05485,308.19766 c 6.0104,-0.41918 12.0198,-0.83936 18.0282,-1.26054 5.79267,-1.86124 11.58411,-3.72342 17.37466,-5.58663 2.66597,-1.37021 5.33082,-2.74136 7.99474,-4.11354 3.37838,0.64456 6.75562,1.28809 10.13194,1.93064 0.65468,2.49514 1.30834,4.98917 1.96102,7.48226 -2.08785,3.16847 -4.17661,6.33581 -6.26641,9.50222 -4.02508,2.93283 -8.051,5.86454 -12.07801,8.79531 -6.68868,3.22562 -13.3781,6.45011 -20.06864,9.67367 -6.31214,0.66383 -12.62503,1.32663 -18.93904,1.98845 -3.72357,-0.10682 -7.448,-0.21463 -11.1735,-0.32345" />
    <path
       style="fill:#000000;stroke:#ffffff;stroke-width:2;stroke-linejoin:bevel;paint-order:stroke fill markers"
       d="m 181.81148,309.33988 c -4.57211,-0.50837 -9.14532,-1.01687 -14.09407,-2.28964 -4.94875,-1.27278 -10.27294,-3.31011 -14.68364,-4.76414 -4.41069,-1.45403 -7.90762,-2.32454 -11.54312,-2.76078 -3.6355,-0.43624 -7.40918,-0.4379 -9.73601,-0.1704 -2.32683,0.2675 -3.20598,0.80432 -3.87016,2.16784 -0.66418,1.36351 -1.11292,3.55269 -0.34589,6.04003 0.76703,2.48734 2.7488,5.2723 6.36511,8.51782 3.61631,3.24552 8.86658,6.95172 14.57151,10.26469 5.70492,3.31296 11.86409,6.23272 17.26676,8.13913 5.40267,1.90641 10.04858,2.79971 13.94729,3.24627 3.8987,0.44655 7.05013,0.44655 9.60736,0.10193 2.55723,-0.34461 4.52054,-1.03362 6.48331,-1.72244"
       id="path1249"
       inkscape:path-effect="#path-effect1251"
       inkscape:original-d="m 181.81148,309.33988 c -4.57221,-0.50749 -9.14542,-1.01598 -13.71962,-1.52548 -5.32341,-2.0364 -10.6476,-4.07372 -15.97289,-6.11209 -3.49607,-0.86954 -6.993,-1.74004 -10.491,-2.61156 -3.77282,-7.9e-4 -7.5465,-0.003 -11.32125,-0.005 -0.87819,0.53784 -1.75734,1.07466 -2.63751,1.61049 -0.44776,2.19027 -0.8965,4.37945 -1.34624,6.56768 1.98284,2.78607 3.96461,5.57104 5.94542,8.35506 5.25148,3.70735 10.50175,7.41355 15.75113,11.11883 6.16041,2.92088 12.31958,5.84064 18.47787,8.75946 4.6471,0.89435 9.29301,1.78766 13.93802,2.67998 3.15255,10e-4 6.30398,10e-4 9.45448,0 1.96438,-0.68803 3.92769,-1.37704 5.89004,-2.06706" />
    <path
       style="fill:none;stroke:#ffffff;stroke-width:2;stroke-linejoin:bevel;paint-order:stroke fill markers"
       d="m 160.82765,133.62549 c 3.97546,1.31869 7.94972,2.63698 11.81187,4.9637 3.86215,2.32672 7.61219,5.66119 9.54695,8.89947 1.93476,3.23829 2.05517,6.38008 1.30629,9.49468 -0.74888,3.1146 -2.36676,6.20247 -4.73058,8.85182 -2.36382,2.64935 -5.47382,4.86054 -8.58407,7.0719"
       id="path1253"
       inkscape:path-effect="#path-effect1255"
       inkscape:original-d="m 160.82765,133.62549 c 3.97526,1.31929 7.94952,2.63759 11.92278,3.95488 3.75119,3.3356 7.50123,6.67007 11.25034,10.00361 0.12142,3.14293 0.24183,6.28472 0.36125,9.42558 -1.61694,3.08901 -3.23482,6.17688 -4.85373,9.26382 -3.10912,2.21227 -6.21912,4.42345 -9.33018,6.63368" />
    <path
       style="fill:none;stroke:#ffffff;stroke-width:2;stroke-linejoin:bevel;paint-order:stroke fill markers"
       d="m 291.90263,133.58373 c -5.15734,1.96578 -10.31522,3.93177 -14.11596,6.27819 -3.80073,2.34642 -6.24364,5.0729 -7.52503,7.89256 -1.2814,2.81967 -1.40124,5.73144 -1.01364,8.28252 0.3876,2.55108 1.28206,4.74107 3.32387,7.23696 2.04181,2.49589 5.23025,5.2978 8.41769,8.09884"
       id="path1257"
       inkscape:path-effect="#path-effect1259"
       inkscape:original-d="m 291.90263,133.58373 c -5.15688,1.96698 -10.31476,3.93297 -15.47364,5.89796 -2.442,2.72759 -4.88491,5.45407 -7.32886,8.1796 -0.11885,2.9129 -0.23869,5.82467 -0.35953,8.7355 0.8955,2.19108 1.78997,4.38107 2.68345,6.5701 3.18957,2.80302 6.37801,5.60494 9.56551,8.40591" />
    <path
       style="fill:#ffffff;stroke:#ffffff;stroke-width:2;stroke-linejoin:bevel;paint-order:stroke fill markers"
       d="m 216.7918,213.08181 19.77913,-0.002 c 0,0 1.3374,4.54584 0.43778,6.53515 -1.43184,3.16621 -4.97046,5.25773 -8.2705,6.34621 -1.80612,0.59573 -3.92117,0.56175 -5.70464,-0.0987 -2.82763,-1.04711 -5.82423,-2.98088 -6.96497,-5.77205 -0.88852,-2.17405 0.7232,-7.00861 0.7232,-7.00861 z"
       id="path1263"
       sodipodi:nodetypes="ccssssc" />
    <path
       style="display:inline;fill:none;stroke:#ffffff;stroke-width:2;stroke-linejoin:bevel;paint-order:stroke fill markers"
       d="m 200.22323,246.12685 8.40846,-9.55743 5.69127,10.01643 6.89736,-11.91139 5.72016,16.21408 c 0,0 10.97466,-15.70849 10.97466,-14.71452 0,0.99397 5.34527,6.71035 5.34527,6.71035 l 7.3872,-6.11794 7.75501,10.84608"
       id="path1415" />
    <ellipse
       style="display:inline;fill:#000000;stroke:#ffffff;stroke-width:2;stroke-linejoin:bevel;paint-order:stroke fill markers"
       id="path1469"
       cx="201.46159"
       cy="187.75597"
       rx="10.19178"
       ry="17.796062" />
    <path
       style="display:inline;fill:none;stroke:#ffffff;stroke-width:2;stroke-linejoin:bevel;paint-order:stroke fill markers"
       d="m 240.96905,196.30917 c 0.70812,-0.72046 1.05506,-1.76629 1.76947,-2.48071 0.31337,-0.31336 0.66263,-0.51546 0.98872,-0.80894 1.17586,-1.05827 2.47549,-1.97654 3.77511,-2.87629 0.6538,-0.45263 1.18932,-1.03027 1.79768,-1.52802 1.5721,-1.28627 -0.9198,1.04263 0.98872,-0.71907 0.78576,-0.72531 1.51771,-1.47449 2.33698,-2.15721 0.35658,-0.29716 0.63213,-0.69156 0.98872,-0.98872 1.75402,-1.46169 3.52761,-2.8921 5.39302,-4.22453 0.5918,-0.42271 1.09052,-0.96246 1.70779,-1.34826 0.97672,-0.61045 1.8402,-1.36952 2.87628,-1.88756 0.84179,-0.42089 1.8271,-0.65864 2.51674,-1.34825"
       id="path1534" />
    <path
       style="display:inline;fill:none;stroke:#ffffff;stroke-width:2;stroke-linejoin:bevel;paint-order:stroke fill markers"
       d="m 260.87486,195.94613 c -0.66416,-0.41244 -0.97222,-1.11577 -1.44275,-1.70393 -0.57777,-0.72223 -0.79628,-1.69088 -1.34825,-2.42687 -0.53678,-0.71571 -1.04031,-1.46408 -1.61791,-2.1572 -0.42438,-0.50925 -0.73163,-1.11864 -1.16849,-1.61791 -0.33238,-0.37987 -0.73029,-0.6404 -1.07861,-0.98872 -0.0764,-0.0764 -0.10337,-0.19327 -0.17976,-0.26965 -0.44401,-0.44402 -0.95066,-0.94202 -1.43814,-1.34826 -1e-4,-9e-5 -0.5392,-0.35944 -0.5393,-0.35954 -0.10593,-0.10593 -0.16372,-0.2536 -0.26965,-0.35953 -0.18225,-0.18224 -0.43119,-0.28442 -0.62919,-0.44942 -0.36036,-0.3003 -0.71223,-0.60573 -1.07861,-0.89883 -0.21567,-0.17254 -0.18435,-0.21586 -0.35953,-0.44942 -0.29085,-0.3878 -0.82237,-0.91226 -1.16849,-1.25838 -0.65413,-0.65413 -1.35559,-1.27749 -2.06732,-1.88755 -0.41298,-0.35398 -0.73378,-0.84246 -1.16849,-1.16849 -0.32871,-0.24653 -0.6498,-0.49312 -0.98872,-0.71907 -0.17286,-0.11523 -0.27657,-0.33418 -0.44942,-0.44942 -0.11149,-0.0743 -0.26479,-0.085 -0.35953,-0.17977 -0.0212,-0.0212 0.0212,-0.0687 0,-0.0899 -0.14953,-0.14952 -0.97244,-0.70378 -1.01891,-0.70378"
       id="path1536" />
    <path
       style="display:inline;fill:none;stroke:#ffffff;stroke-width:2;stroke-linejoin:bevel;paint-order:stroke fill markers"
       d="m 94.740979,175.9997 c -1.634318,1.88488 -3.268569,3.76968 -4.278563,6.03481 -1.009995,2.26514 -1.395661,4.90975 -1.418882,7.65169 -0.02322,2.74193 0.315745,5.58077 1.20136,8.22715 0.885615,2.64638 2.317261,5.10007 3.360691,6.64604 1.04343,1.54597 1.698268,2.18434 2.352106,2.82173"
       id="path1538"
       inkscape:path-effect="#path-effect1540"
       inkscape:original-d="m 94.740979,175.9997 c -1.633252,1.8858 -3.267503,3.7706 -4.902755,5.6544 -0.384681,2.64571 -0.770347,5.29032 -1.157021,7.93398 0.339979,2.83995 0.678945,5.67879 1.016917,8.51669 1.432701,2.45478 2.864344,4.90847 4.295016,7.3612 0.655865,0.6394 1.310703,1.27777 1.964555,1.91515" />
    <path
       style="display:inline;fill:none;stroke:#ffffff;stroke-width:2;stroke-linejoin:bevel;paint-order:stroke fill markers"
       d="m 83.498702,166.53758 c -2.724355,3.92024 -5.448566,7.84027 -7.253544,11.80622 -1.804977,3.96596 -2.690662,7.97714 -2.82694,12.22667 -0.136278,4.24953 0.476529,8.73676 2.605154,13.34193 2.128625,4.60517 5.772205,9.32802 9.415005,14.04986"
       id="path1542"
       inkscape:path-effect="#path-effect1544"
       inkscape:original-d="m 83.498702,166.53758 c -2.723212,3.92103 -5.447423,7.84106 -8.172635,11.76009 -0.884721,4.01235 -1.770407,8.02353 -2.657111,12.0338 0.613831,4.48841 1.226638,8.97564 1.838457,13.46195 3.644727,4.72404 7.288309,9.44689 10.930964,14.16884" />
    <path
       style="display:inline;fill:none;stroke:#ffffff;stroke-width:2;stroke-linejoin:bevel;paint-order:stroke fill markers"
       d="m 356.80022,176.4309 c 1.63432,1.88488 3.26857,3.76968 4.27856,6.03481 1.00999,2.26514 1.39566,4.90975 1.41888,7.65169 0.0232,2.74193 -0.31574,5.58077 -1.20136,8.22715 -0.88561,2.64639 -2.31726,5.10007 -3.36069,6.64604 -1.04343,1.54597 -1.69827,2.18433 -2.35211,2.82173"
       id="path1586"
       inkscape:path-effect="#path-effect1592"
       inkscape:original-d="m 356.80022,176.4309 c 1.63325,1.8858 3.2675,3.7706 4.90275,5.6544 0.38468,2.64571 0.77035,5.29032 1.15702,7.93398 -0.33998,2.83995 -0.67894,5.67879 -1.01691,8.51669 -1.43271,2.45478 -2.86435,4.90847 -4.29502,7.3612 -0.65587,0.6394 -1.3107,1.27777 -1.96456,1.91515" />
    <path
       style="display:inline;fill:none;stroke:#ffffff;stroke-width:2;stroke-linejoin:bevel;paint-order:stroke fill markers"
       d="m 368.04249,166.96878 c 2.72436,3.92024 5.44857,7.84027 7.25355,11.80622 1.80498,3.96596 2.69066,7.97714 2.82694,12.22667 0.13627,4.24953 -0.47653,8.73676 -2.60516,13.34193 -2.12862,4.60517 -5.7722,9.32802 -9.415,14.04986"
       id="path1588"
       inkscape:path-effect="#path-effect1596"
       inkscape:original-d="m 368.04249,166.96878 c 2.72322,3.92103 5.44743,7.84106 8.17264,11.76009 0.88472,4.01235 1.77041,8.02353 2.65711,12.0338 -0.61383,4.48841 -1.22664,8.97564 -1.83846,13.46195 -3.64472,4.72404 -7.28831,9.44689 -10.93096,14.16884" />
    <ellipse
       style="fill:#ffffff;stroke:#ffffff;stroke-width:2;stroke-linejoin:bevel;paint-order:stroke fill markers"
       id="path1721"
       cx="201.46159"
       cy="187.75597"
       rx="3.6403995"
       ry="5.3197269" />
  </g>
</svg>
